# xmcd
#
# Track frame offsets:
#	150
#	16739
#	31211
#	49113
#	69973
#	88312
#	105993
#	122643
#	137197
#	154872
#
# Disc length: 2236 seconds
#
# Revision: 0
# Processed by: cddbd v1.5.1PL2 Copyright (c) Steve Scherf et al.
# Submitted via: EasyCDDAExtractor 4.6.9.1
#
DISCID=7908ba0a
DTITLE=Steve Wariner - I Am Ready
DYEAR=1991
DGENRE=Country
TTITLE0=The Tips Of My Fingers
TTITLE1=When Will I Let Go
TTITLE2=Leave Him Out Of This
TTITLE3=Like A River To The Sea
TTITLE4=Everything's Gonna Be Alright
TTITLE5=A Woman Loves
TTITLE6=My, How The Time Don't Fly
TTITLE7=Gone Out Of My Mind
TTITLE8=Crash Course In The Blues
TTITLE9=On My Heart Again
EXTD=
EXTT0=
EXTT1=
EXTT2=
EXTT3=
EXTT4=
EXTT5=
EXTT6=
EXTT7=
EXTT8=
EXTT9=
PLAYORDER=
